<svg width="19" height="18" viewBox="0 0 19 18" fill="none" xmlns="http://www.w3.org/2000/svg">
<path d="M14.959 2.8125H3.70898C3.39832 2.8125 3.14648 3.06434 3.14648 3.375V14.625C3.14648 14.9357 3.39832 15.1875 3.70898 15.1875H14.959C15.2696 15.1875 15.5215 14.9357 15.5215 14.625V3.375C15.5215 3.06434 15.2696 2.8125 14.959 2.8125Z" stroke="#366AF3" stroke-linecap="round" stroke-linejoin="round"/>
<path d="M12.709 1.6875V3.9375" stroke="#366AF3" stroke-linecap="round" stroke-linejoin="round"/>
<path d="M5.95898 1.6875V3.9375" stroke="#366AF3" stroke-linecap="round" stroke-linejoin="round"/>
<path d="M3.14648 6.1875H15.5215" stroke="#366AF3" stroke-linecap="round" stroke-linejoin="round"/>
<path d="M6.80273 9H8.77148L7.64648 10.4062C7.83163 10.4059 8.01399 10.4513 8.17739 10.5384C8.3408 10.6254 8.48019 10.7515 8.5832 10.9053C8.68621 11.0592 8.74966 11.236 8.76792 11.4203C8.78619 11.6045 8.75869 11.7904 8.68788 11.9615C8.61707 12.1326 8.50514 12.2835 8.362 12.401C8.21887 12.5184 8.04896 12.5987 7.86736 12.6347C7.68575 12.6708 7.49806 12.6614 7.32093 12.6075C7.1438 12.5536 6.98271 12.4569 6.85195 12.3258" stroke="#366AF3" stroke-linecap="round" stroke-linejoin="round"/>
<path d="M10.459 9.84375L11.584 9V12.6562" stroke="#366AF3" stroke-linecap="round" stroke-linejoin="round"/>
</svg>
