<svg width="12" height="12" viewBox="0 0 12 12" fill="none" xmlns="http://www.w3.org/2000/svg">
<path fill-rule="evenodd" clip-rule="evenodd" d="M3.06033 0.488319C3.06033 0.218628 3.28103 0 3.55327 0H11.5071C11.7793 0 12 0.218628 12 0.488319V8.36955C12 8.63925 11.7793 8.85787 11.5071 8.85787H8.93967V11.5117C8.93967 11.7814 8.71897 12 8.44673 12H0.49294C0.220697 12 0 11.7814 0 11.5117V3.63045C0 3.36075 0.220697 3.14213 0.49294 3.14213H3.06033V0.488319ZM4.04621 3.14213H8.44673C8.71897 3.14213 8.93967 3.36075 8.93967 3.63045V7.88124H11.0141V0.976639H4.04621V3.14213ZM0.985879 4.11876V11.0234H7.95379V4.11876H0.985879Z" fill="#CCCCCC"/>
</svg>
