<svg width="12" height="12" viewBox="0 0 12 12" fill="none" xmlns="http://www.w3.org/2000/svg">
<path d="M9.03328 1.09149C8.97468 1.03291 8.89521 1 8.81235 1C8.72949 1 8.65002 1.03291 8.59142 1.09149L7.56209 2.12086L9.87887 4.4377L10.9082 3.40897C10.9373 3.37994 10.9604 3.34545 10.9761 3.30749C10.9919 3.26952 11 3.22882 11 3.18772C11 3.14661 10.9919 3.10591 10.9761 3.06795C10.9604 3.02998 10.9373 2.9955 10.9082 2.96647L9.03328 1.09149ZM9.43701 4.87957L7.12024 2.56273L3.05791 6.62518H3.18728C3.27016 6.62518 3.34964 6.6581 3.40824 6.7167C3.46685 6.77531 3.49977 6.85479 3.49977 6.93767V7.25017H3.81226C3.89513 7.25017 3.97461 7.28309 4.03322 7.3417C4.09182 7.4003 4.12474 7.47979 4.12474 7.56266V7.87516H4.43723C4.52011 7.87516 4.59959 7.90808 4.65819 7.96669C4.71679 8.02529 4.74971 8.10478 4.74971 8.18766V8.50015H5.0622C5.14508 8.50015 5.22456 8.53307 5.28316 8.59168C5.34176 8.65028 5.37469 8.72977 5.37469 8.81265V8.94202L9.43701 4.87957ZM4.76971 9.54701C4.75656 9.51204 4.74979 9.475 4.74971 9.43764V9.12514H4.43723C4.35435 9.12514 4.27487 9.09222 4.21627 9.03362C4.15766 8.97501 4.12474 8.89553 4.12474 8.81265V8.50015H3.81226C3.72938 8.50015 3.6499 8.46723 3.59129 8.40862C3.53269 8.35002 3.49977 8.27054 3.49977 8.18766V7.87516H3.18728C3.10441 7.87516 3.02492 7.84224 2.96632 7.78363C2.90772 7.72503 2.8748 7.64554 2.8748 7.56266V7.25017H2.56231C2.52495 7.25011 2.4879 7.24333 2.45294 7.23017L2.34107 7.34142C2.31129 7.37141 2.2879 7.40713 2.27232 7.44642L1.02238 10.5714C0.999647 10.6282 0.994083 10.6904 1.00637 10.7503C1.01867 10.8102 1.04827 10.8652 1.09153 10.9085C1.13478 10.9517 1.18977 10.9813 1.24969 10.9936C1.30961 11.0059 1.37182 11.0004 1.42861 10.9776L4.55347 9.72764C4.59276 9.71206 4.62848 9.68867 4.65847 9.65889L4.76971 9.54764V9.54701Z" fill="#CCCCCC"/>
</svg>
