<svg width="12" height="12" viewBox="0 0 12 12" fill="none" xmlns="http://www.w3.org/2000/svg">
<path fill-rule="evenodd" clip-rule="evenodd" d="M5.99908 0.97768C5.58769 0.97768 5.19315 1.13521 4.90225 1.41562C4.61135 1.69603 4.44793 2.07635 4.44793 2.47291V3.96785H7.55023V2.47291C7.55023 2.07635 7.38681 1.69603 7.09591 1.41562C6.80501 1.13521 6.41047 0.97768 5.99908 0.97768ZM8.56448 3.96785V2.47291C8.56448 1.81705 8.2942 1.18806 7.81309 0.724298C7.33198 0.260538 6.67947 0 5.99908 0C5.3187 0 4.66618 0.260538 4.18507 0.724298C3.70396 1.18806 3.43368 1.81705 3.43368 2.47291V3.96785H1.42546C0.892767 3.96785 0.460938 4.38411 0.460938 4.8976V11.0703C0.460938 11.5837 0.892767 12 1.42546 12H10.5733C11.106 12 11.5379 11.5837 11.5379 11.0703V4.8976C11.5379 4.38411 11.106 3.96785 10.5733 3.96785H8.56448ZM8.03989 4.94553C8.04569 4.94572 8.05151 4.94582 8.05736 4.94582C8.0632 4.94582 8.06902 4.94572 8.07482 4.94553H10.5236V11.0223H1.47518V4.94553H3.92334C3.92914 4.94572 3.93496 4.94582 3.94081 4.94582C3.94665 4.94582 3.95247 4.94572 3.95827 4.94553H8.03989Z" fill="#CCCCCC"/>
<path d="M5.99859 8.64693C6.37751 8.64693 6.68468 8.35083 6.68468 7.98558C6.68468 7.62032 6.37751 7.32422 5.99859 7.32422C5.61967 7.32422 5.3125 7.62032 5.3125 7.98558C5.3125 8.35083 5.61967 8.64693 5.99859 8.64693Z" fill="#CCCCCC"/>
</svg>
