<svg version="1.1" id="Frame_0" xmlns="http://www.w3.org/2000/svg" xmlns:xlink="http://www.w3.org/1999/xlink" width="25px" height="25px">
    <path fill="#4c8bf7" fill-rule="evenodd" stroke="none" d="M 4.691 12.585 C 4.691 8.312 8.138 4.865 12.411 4.865 C 16.685 4.865 20.132 8.312 20.132 12.585 C 20.132 16.859 16.685 20.306 12.411 20.306 C 8.138 20.306 4.691 16.859 4.691 12.585 M 2.884 12.585 C 2.884 7.312 7.138 3.058 12.411 3.058 C 17.685 3.058 21.939 7.312 21.939 12.585 C 21.939 17.859 17.685 22.113 12.411 22.113 C 7.138 22.113 2.884 17.859 2.884 12.585 Z"></path>
    <path fill="#4c8bf7" fill-rule="evenodd" stroke="none" d="M 10.855 14.489 C 10.855 14.489 16.265 9.113 16.265 9.113 C 16.457 8.923 16.766 8.923 16.958 9.113 C 16.958 9.113 17.783 9.930 17.783 9.930 C 17.974 10.119 17.974 10.428 17.783 10.618 C 17.783 10.618 11.316 17.053 11.316 17.053 C 11.049 17.320 10.615 17.317 10.351 17.047 C 10.351 17.047 7.061 13.690 7.061 13.690 C 6.872 13.497 6.875 13.188 7.066 12.998 C 7.066 12.998 7.869 12.203 7.869 12.203 C 8.061 12.013 8.371 12.014 8.562 12.205 C 8.562 12.205 10.855 14.489 10.855 14.489 Z"></path>
</svg>