<svg version="1.1" id="Frame_0" xmlns="http://www.w3.org/2000/svg" xmlns:xlink="http://www.w3.org/1999/xlink" width="25px" height="25px">
    <path fill="#e06c6d" fill-rule="evenodd" stroke="none" d="M 14.686 16.347 C 14.686 16.347 12.371 14.033 12.371 14.033 C 12.371 14.033 10.012 16.378 10.012 16.378 C 9.809 16.580 9.479 16.579 9.277 16.376 C 9.277 16.376 8.470 15.566 8.470 15.566 C 8.267 15.363 8.268 15.034 8.471 14.831 C 8.471 14.831 10.824 12.487 10.824 12.487 C 10.824 12.487 8.513 10.174 8.513 10.174 C 8.310 9.970 8.307 9.640 8.508 9.434 C 8.508 9.434 9.290 8.631 9.290 8.631 C 9.490 8.426 9.819 8.424 10.020 8.627 C 10.020 8.627 12.352 10.964 12.352 10.964 C 12.352 10.964 14.689 8.636 14.689 8.636 C 14.892 8.434 15.222 8.435 15.424 8.638 C 15.424 8.638 16.231 9.448 16.231 9.448 C 16.433 9.651 16.433 9.980 16.230 10.183 C 16.230 10.183 13.897 12.507 13.897 12.507 C 13.897 12.507 16.208 14.822 16.208 14.822 C 16.411 15.025 16.411 15.355 16.208 15.558 C 16.208 15.558 15.421 16.346 15.421 16.346 C 15.218 16.549 14.889 16.549 14.686 16.347 Z"></path>
    <path fill="#e06c6d" fill-rule="evenodd" stroke="none" d="M 6.926 7.058 C 9.947 4.036 14.823 4.036 17.844 7.058 C 20.866 10.080 20.866 14.955 17.844 17.977 C 14.823 20.998 9.947 20.998 6.926 17.977 C 3.904 14.955 3.904 10.080 6.926 7.058 M 5.648 5.780 C 9.377 2.051 15.393 2.051 19.122 5.780 C 22.851 9.509 22.851 15.526 19.122 19.254 C 15.393 22.983 9.377 22.983 5.648 19.254 C 1.919 15.526 1.919 9.509 5.648 5.780 Z"></path>
</svg>