<svg width="12" height="12" viewBox="0 0 12 12" fill="none" xmlns="http://www.w3.org/2000/svg">
<path fill-rule="evenodd" clip-rule="evenodd" d="M5.2132 0.985785C2.87848 0.985785 0.985821 2.87838 0.985821 5.21301C0.985821 7.54764 2.87848 9.44023 5.2132 9.44023C7.54791 9.44023 9.44057 7.54764 9.44057 5.21301C9.44057 2.87838 7.54791 0.985785 5.2132 0.985785ZM0 5.21301C0 2.33394 2.33403 0 5.2132 0C8.09236 0 10.4264 2.33394 10.4264 5.21301C10.4264 6.56352 9.91282 7.79408 9.07032 8.72007L11.8317 11.1362C12.0365 11.3154 12.0573 11.6268 11.878 11.8317C11.6988 12.0365 11.3874 12.0573 11.1825 11.878L8.33611 9.38754C7.46568 10.0397 6.38455 10.426 5.2132 10.426C2.33403 10.426 0 8.09207 0 5.21301Z" fill="#CCCCCC"/>
</svg>
