<svg width="14" height="14" viewBox="0 0 14 14" fill="none" xmlns="http://www.w3.org/2000/svg">
<path d="M7.08832 1H7.01412C6.50729 1 6.06873 1.35265 5.95996 1.84767V1.84767C5.88475 2.18992 5.64808 2.47435 5.32521 2.61052L5.12002 2.69706C4.80219 2.8311 4.4358 2.80579 4.13742 2.63273V2.63273C3.71416 2.38723 3.17274 2.45227 2.82507 2.79656L2.78488 2.83637C2.44459 3.17336 2.38653 3.70251 2.64566 4.10527V4.10527C2.83118 4.39364 2.85838 4.75624 2.71794 5.06905L2.58706 5.36057C2.44757 5.67127 2.17277 5.90044 1.84207 5.98186L1.82688 5.9856C1.3413 6.10516 1 6.54068 1 7.04076V7.04076C1 7.53085 1.32805 7.96029 1.80088 8.08919L1.83944 8.0997C2.17238 8.19045 2.44623 8.42726 2.58407 8.74362L2.67049 8.94196C2.80442 9.24933 2.77985 9.60273 2.60468 9.88862V9.88862C2.35474 10.2965 2.4196 10.823 2.76109 11.1581L2.81925 11.2151C3.16537 11.5547 3.70279 11.6035 4.1044 11.3318V11.3318C4.39325 11.1364 4.76195 11.1022 5.08181 11.2412L5.31841 11.3439C5.64614 11.4863 5.88594 11.7769 5.96353 12.1257V12.1257C6.07716 12.6366 6.5303 13 7.05364 13H7.17076M6.91168 1H6.98588C7.49271 1 7.93127 1.35265 8.04004 1.84767V1.84767C8.11525 2.18992 8.35192 2.47435 8.67479 2.61052L8.87998 2.69706C9.19781 2.8311 9.5642 2.80579 9.86258 2.63273V2.63273C10.2858 2.38723 10.8273 2.45227 11.1749 2.79656L11.2151 2.83637C11.5554 3.17336 11.6135 3.70251 11.3543 4.10527V4.10527C11.1688 4.39364 11.1416 4.75624 11.2821 5.06905L11.4129 5.36057C11.5524 5.67127 11.8272 5.90044 12.1579 5.98186L12.1731 5.9856C12.6587 6.10516 13 6.54068 13 7.04076V7.04076C13 7.53085 12.672 7.96029 12.1991 8.08919L12.1606 8.0997C11.8276 8.19045 11.5538 8.42726 11.4159 8.74362L11.3295 8.94196C11.1956 9.24933 11.2201 9.60273 11.3953 9.88862V9.88862C11.6453 10.2965 11.5804 10.823 11.2389 11.1581L11.1807 11.2151C10.8346 11.5547 10.2972 11.6035 9.8956 11.3318V11.3318C9.60675 11.1364 9.23805 11.1022 8.91819 11.2412L8.68159 11.3439C8.35386 11.4863 8.11406 11.7769 8.03647 12.1257V12.1257C7.92284 12.6366 7.4697 13 6.94636 13H6.82924" stroke="#4C89F7" stroke-width="1.3"/>
<path d="M8.61048 6.99019C8.61048 7.92379 7.87183 8.65851 6.98766 8.65851C6.10349 8.65851 5.36484 7.92379 5.36484 6.99019C5.36484 6.0566 6.10349 5.32187 6.98766 5.32187C7.87183 5.32187 8.61048 6.0566 8.61048 6.99019Z" stroke="#4C89F7" stroke-width="1.3"/>
</svg>
