<svg width="12" height="13" viewBox="0 0 12 13" fill="none" xmlns="http://www.w3.org/2000/svg">
<path fill-rule="evenodd" clip-rule="evenodd" d="M3.37206 0.493579C3.68712 0.177546 4.11444 0 4.56 0H7.44C7.88556 0 8.31288 0.177546 8.62794 0.493579C8.943 0.809613 9.12 1.23825 9.12 1.68519V1.92593L10.3194 1.92593C10.3196 1.92593 10.3198 1.92593 10.32 1.92593C10.3202 1.92593 10.3204 1.92593 10.3206 1.92593L11.28 1.92593C11.6776 1.92593 12 2.24928 12 2.64815C12 3.04702 11.6776 3.37037 11.28 3.37037H11.04V11.7963C11.04 12.1155 10.9136 12.4217 10.6885 12.6474C10.4635 12.8732 10.1583 13 9.84 13H2.16C1.84174 13 1.53652 12.8732 1.31147 12.6474C1.08643 12.4217 0.96 12.1155 0.96 11.7963V3.37037H0.72C0.322355 3.37037 1.14441e-07 3.04702 0 2.64815C-1.14441e-07 2.24928 0.322355 1.92593 0.72 1.92593L1.678 1.92593C1.67867 1.92593 1.67933 1.92593 1.68 1.92593C1.68067 1.92593 1.68133 1.92593 1.68199 1.92593L2.88 1.92593V1.68519C2.88 1.23825 3.057 0.809613 3.37206 0.493579ZM2.4 3.37037V11.5556H9.6V3.37037L2.4 3.37037ZM7.68 1.92593L4.32 1.92593V1.68519C4.32 1.62134 4.34529 1.5601 4.39029 1.51496C4.4353 1.46981 4.49635 1.44444 4.56 1.44444H7.44C7.50365 1.44444 7.5647 1.46981 7.6097 1.51496C7.65471 1.5601 7.68 1.62134 7.68 1.68519V1.92593ZM4.56 4.81482C4.95764 4.81482 5.28 5.13816 5.28 5.53704V9.38889C5.28 9.78776 4.95764 10.1111 4.56 10.1111C4.16235 10.1111 3.84 9.78776 3.84 9.38889V5.53704C3.84 5.13816 4.16235 4.81482 4.56 4.81482ZM7.44 4.81482C7.83765 4.81482 8.16 5.13816 8.16 5.53704V9.38889C8.16 9.78776 7.83765 10.1111 7.44 10.1111C7.04235 10.1111 6.72 9.78776 6.72 9.38889V5.53704C6.72 5.13816 7.04235 4.81482 7.44 4.81482Z" fill="#FF8383"/>
</svg>
