<svg width="12" height="12" viewBox="0 0 12 12" fill="none" xmlns="http://www.w3.org/2000/svg">
<path fill-rule="evenodd" clip-rule="evenodd" d="M3.6937 0.41166C3.95728 0.148079 4.31477 0 4.68753 0H7.43079C7.80355 0 8.16104 0.148079 8.42463 0.41166C8.68821 0.675242 8.83629 1.03273 8.83629 1.4055V1.82865L10.1737 1.82865C10.1739 1.82865 10.1741 1.82865 10.1742 1.82865C10.1744 1.82865 10.1746 1.82865 10.1747 1.82865L11.0888 1.82865C11.36 1.82865 11.5798 2.04851 11.5798 2.31973C11.5798 2.59094 11.36 2.8108 11.0888 2.8108H10.6653V11.0067C10.6653 11.2582 10.5654 11.4994 10.3876 11.6773C10.2097 11.8551 9.96853 11.955 9.71703 11.955H2.40167C2.15017 11.955 1.90897 11.8551 1.73113 11.6773C1.55329 11.4994 1.45339 11.2582 1.45339 11.0067V2.81081L1.03014 2.81081C0.758925 2.81081 0.539063 2.59094 0.539063 2.31973C0.539062 2.04851 0.758925 1.82865 1.03014 1.82865L1.94286 1.82865C1.9434 1.82865 1.94393 1.82865 1.94446 1.82865C1.945 1.82865 1.94553 1.82865 1.94606 1.82865L3.28204 1.82865V1.4055C3.28204 1.03274 3.43011 0.675242 3.6937 0.41166ZM3.75937 2.8108C3.76394 2.81093 3.76852 2.81099 3.77311 2.81099C3.77771 2.81099 3.78229 2.81093 3.78685 2.8108L8.33142 2.8108C8.336 2.81093 8.3406 2.81099 8.34521 2.81099C8.34982 2.81099 8.35442 2.81093 8.359 2.8108H9.68316V10.9728H2.43554V2.81081L3.75937 2.8108ZM7.85413 1.82865L4.26419 1.82865V1.4055C4.26419 1.29322 4.30879 1.18554 4.38818 1.10615C4.46758 1.02676 4.57525 0.982154 4.68753 0.982154H7.43079C7.54307 0.982154 7.65075 1.02676 7.73014 1.10615C7.80953 1.18554 7.85413 1.29322 7.85413 1.4055V1.82865ZM4.68744 4.57162C4.95865 4.57162 5.17851 4.79148 5.17851 5.0627V8.72038C5.17851 8.99159 4.95865 9.21145 4.68744 9.21145C4.41622 9.21145 4.19636 8.99159 4.19636 8.72038V5.0627C4.19636 4.79148 4.41622 4.57162 4.68744 4.57162ZM7.43077 4.57188C7.70198 4.57188 7.92184 4.79174 7.92184 5.06295V8.72063C7.92184 8.99185 7.70198 9.21171 7.43077 9.21171C7.15955 9.21171 6.93969 8.99185 6.93969 8.72063V5.06295C6.93969 4.79174 7.15955 4.57188 7.43077 4.57188Z" fill="#CCCCCC"/>
</svg>
