<svg width="16" height="15" viewBox="0 0 16 15" fill="none" xmlns="http://www.w3.org/2000/svg">
<path d="M15.5567 12.0829L9.48382 1.6139C9.33206 1.35742 9.11542 1.14475 8.85535 0.996985C8.59529 0.84922 8.30083 0.771484 8.00118 0.771484C7.70152 0.771484 7.40707 0.84922 7.14701 0.996985C6.88694 1.14475 6.6703 1.35742 6.51854 1.6139L0.445623 12.0829C0.299607 12.331 0.222656 12.6131 0.222656 12.9004C0.222656 13.1878 0.299607 13.4699 0.445623 13.718C0.595436 13.976 0.811714 14.1899 1.07226 14.3375C1.33281 14.4852 1.62825 14.5614 1.92826 14.5583H14.0741C14.3739 14.5611 14.669 14.4848 14.9293 14.3372C15.1896 14.1895 15.4056 13.9758 15.5553 13.718C15.7016 13.47 15.7788 13.1879 15.779 12.9006C15.7793 12.6133 15.7025 12.3311 15.5567 12.0829ZM7.44562 6.28624C7.44562 6.13998 7.50416 5.99971 7.60834 5.89629C7.71253 5.79287 7.85384 5.73477 8.00118 5.73477C8.14852 5.73477 8.28983 5.79287 8.39402 5.89629C8.4982 5.99971 8.55674 6.13998 8.55674 6.28624V9.04359C8.55674 9.18985 8.4982 9.33012 8.39402 9.43354C8.28983 9.53696 8.14852 9.59506 8.00118 9.59506C7.85384 9.59506 7.71253 9.53696 7.60834 9.43354C7.50416 9.33012 7.44562 9.18985 7.44562 9.04359V6.28624ZM8.00118 12.3524C7.83636 12.3524 7.67525 12.3039 7.5382 12.213C7.40116 12.1221 7.29435 11.9929 7.23128 11.8418C7.16821 11.6906 7.1517 11.5243 7.18386 11.3638C7.21601 11.2034 7.29538 11.056 7.41192 10.9403C7.52847 10.8246 7.67695 10.7458 7.8386 10.7139C8.00025 10.682 8.16781 10.6984 8.32008 10.761C8.47235 10.8236 8.6025 10.9296 8.69407 11.0656C8.78564 11.2017 8.83451 11.3616 8.83451 11.5252C8.83451 11.7446 8.74671 11.955 8.59044 12.1101C8.43415 12.2653 8.22219 12.3524 8.00118 12.3524Z" fill="#00487D"/>
</svg>
