<svg width="12" height="11" viewBox="0 0 12 11" fill="none" xmlns="http://www.w3.org/2000/svg">
<path fill-rule="evenodd" clip-rule="evenodd" d="M5.99927 3.8125C5.72704 3.8125 5.50635 4.03321 5.50635 4.30546V6.42423C5.50635 6.69649 5.72704 6.9172 5.99927 6.9172C6.2715 6.9172 6.49219 6.69649 6.49219 6.42423V4.30546C6.49219 4.03321 6.2715 3.8125 5.99927 3.8125Z" fill="#FF8383"/>
<path fill-rule="evenodd" clip-rule="evenodd" d="M6.66954 0.179219C6.46593 0.0618064 6.23503 0 6 0C5.76497 0 5.53407 0.0618064 5.33046 0.179219C5.12686 0.296633 4.9577 0.465525 4.83996 0.668954L5.1878 0.87031L4.83996 0.668955L0.180315 8.71989C0.0623884 8.92364 0.000195503 9.15487 0 9.39029C-0.000195503 9.62572 0.0616121 9.85705 0.179203 10.061C0.296796 10.265 0.466023 10.4343 0.66986 10.5521C0.873696 10.6699 1.10495 10.7319 1.34036 10.7319H10.6596C10.8951 10.7319 11.1263 10.6699 11.3301 10.5521C11.534 10.4343 11.7032 10.265 11.8208 10.061C11.9384 9.85705 12.0002 9.62572 12 9.3903C11.9998 9.15487 11.9376 8.92365 11.8197 8.71989L7.16004 0.668954C7.0423 0.465524 6.87315 0.296632 6.66954 0.179219ZM6 0.985921C6.06217 0.985921 6.12324 1.00227 6.17709 1.03332C6.23095 1.06438 6.27569 1.10905 6.30683 1.16286L10.9665 9.21379C10.9977 9.26768 11.0141 9.32884 11.0142 9.39111C11.0142 9.45338 10.9979 9.51457 10.9668 9.56851C10.9357 9.62246 10.8909 9.66726 10.837 9.69841C10.7831 9.72956 10.7219 9.74596 10.6596 9.74596H1.34036C1.27809 9.74596 1.21693 9.72956 1.16301 9.69841C1.1091 9.66726 1.06434 9.62246 1.03324 9.56851C1.00213 9.51457 0.985785 9.45338 0.985836 9.39111C0.985888 9.32884 1.00234 9.26769 1.03353 9.21379L0.66355 8.99962L1.03353 9.21379L5.69317 1.16286L5.26657 0.915906L5.69317 1.16286C5.72432 1.10905 5.76906 1.06438 5.82291 1.03332C5.87677 1.00227 5.93784 0.985921 6 0.985921Z" fill="#FF8383"/>
<path d="M6.07536 9.0447C5.72434 9.0447 5.43978 8.76012 5.43978 8.40907C5.43978 8.05802 5.72434 7.77344 6.07536 7.77344C6.42638 7.77344 6.71094 8.05802 6.71094 8.40907C6.71094 8.76012 6.42638 9.0447 6.07536 9.0447Z" fill="#FF8383"/>
</svg>
